<?xml version="1.0" encoding="UTF-8"?>
<svg xmlns="http://www.w3.org/2000/svg" xmlns:xlink="http://www.w3.org/1999/xlink" width="65px" height="65px" viewBox="0 0 65 65" version="1.1">
<g id="surface1">
<path style=" stroke:none;fill-rule:nonzero;fill:rgb(96.470588%,10.980392%,5.098039%);fill-opacity:1;" d="M 51.5 9.503906 L 13.5 9.503906 C 6.042969 9.503906 0 15.546875 0 23 L 0 42 C 0 49.453125 6.042969 55.496094 13.5 55.496094 L 51.5 55.496094 C 58.957031 55.496094 65 49.453125 65 42 L 65 23 C 65 15.546875 58.957031 9.503906 51.5 9.503906 Z M 42.371094 33.425781 L 24.597656 41.902344 C 24.121094 42.128906 23.574219 41.78125 23.574219 41.257812 L 23.574219 23.773438 C 23.574219 23.242188 24.136719 22.894531 24.613281 23.136719 L 42.386719 32.144531 C 42.914062 32.410156 42.90625 33.167969 42.371094 33.425781 Z M 42.371094 33.425781 "/>
</g>
</svg>
